<svg xmlns="http://www.w3.org/2000/svg" width="512" height="512" viewBox="0 0 512 512"><path fill="#008cdb" d="M487.1 307.1c-.6-18.4-15.7-33.1-34.2-33.1H220.2c-18.5 0-33.6 14.7-34.1 33.1l-.1 103.2c0 18.9 15.3 34.2 34.2 34.2h34.2v-63.9h13.3v63.9h137.9v-63.9h13.3v63.9h34.2c18.9 0 34.2-15.3 34.2-34.2V307.1h-.2z"/><path fill="#008cdb" d="M228.4 140.9c1.5-8.7 4-17.1 7.5-25H54.2c-16.1 0-29.3 13.2-29.3 29.3v194.1c0 16.1 13.2 29.3 29.3 29.3h95v49.8h-22c-5.7 0-10.3 4.6-10.3 10.3V446h67.9c-9.2-9.1-14.9-21.7-14.9-35.7v-69.2h-122V140.9h180.5zM336.6 66c-51.8 0-93.7 42-93.7 93.7 0 51.8 42 93.7 93.7 93.7 51.8 0 93.7-41.9 93.7-93.7 0-51.7-42-93.7-93.7-93.7z"/><path fill="#008cdb" d="M287.6 257.9c-30.4-15.2-52.8-44.1-59.1-78.6v78.6h59.1zM68.9 160.2h140.7v42.7H68.9zM68.9 219v107.1h101v-35c.6-18.4 15.6-33.1 34.1-33.1h5.6v-39H68.9z"/></svg>